<svg width="1796" height="1753" viewBox="0 0 1796 1753" fill="none" xmlns="http://www.w3.org/2000/svg">
<path id="Vector" d="M1477.06 128.311C1397.2 79.087 1322.75 45.826 1253.5 25.597C1136.66 -8.53502 1034.64 -5.56501 946.5 20.429C858.72 46.314 784.705 95.032 723.5 152.684C655.508 216.728 603.332 291.797 565.682 358.835C524.696 431.813 470.099 492.588 411 547.261C326.494 625.439 232.783 691.141 156.5 762.21C88.516 825.54 34.374 893.14 12.924 977.62C-16.464 1093.37 5.13899 1199.48 70.009 1302.5C121.575 1384.39 200.481 1464.32 302.845 1545.58C365.346 1595.19 453.259 1643.56 555 1681.01C695.47 1732.71 862.3 1763.6 1025 1748.21C1180.26 1733.52 1331.75 1676.69 1453 1555.6C1536.74 1471.95 1609.14 1369.66 1665.5 1257.8C1721.42 1146.82 1761.56 1026.42 1781.32 905.5C1807.83 743.29 1797.69 580.136 1739.82 437.5C1689.99 314.649 1604.76 207.017 1477.06 128.311Z" fill="url(#paint0_linear)" fill-opacity="0.5"/>
<defs>
<linearGradient id="paint0_linear" x1="87" y1="773" x2="519" y2="1285" gradientUnits="userSpaceOnUse">
<stop stop-color="#6ABF4B"/>
<stop offset="1" stop-color="#6ABF4B" stop-opacity="0"/>
</linearGradient>
</defs>
</svg>
